<?xml version="1.0" encoding="utf-8"?>
<!-- Generator: Adobe Illustrator 16.0.0, SVG Export Plug-In . SVG Version: 6.00 Build 0)  -->
<!DOCTYPE svg PUBLIC "-//W3C//DTD SVG 1.1//EN" "http://www.w3.org/Graphics/SVG/1.1/DTD/svg11.dtd">
<svg version="1.1" id="Layer_1" xmlns="http://www.w3.org/2000/svg" xmlns:xlink="http://www.w3.org/1999/xlink" x="0px" y="0px"
	 width="300px" height="37px" viewBox="0 0 300 37" style="enable-background:new 0 0 300 37;" xml:space="preserve">
<style type="text/css">
<![CDATA[
	.st0{fill:#222222;}
	.st1{fill:#676767;}
	.st2{fill:#3477B2;}
]]>
</style>
<g>
	<path class="st0" d="M18.6,19.8c0,1.6-0.4,3-1.2,4.2s-2,2.2-3.5,2.9s-3.3,1-5.4,1c-1.7,0-3.1-0.1-4.3-0.4s-2.4-0.7-3.6-1.3v-6.2
		c1.3,0.7,2.7,1.2,4.1,1.6s2.7,0.6,3.9,0.6c1,0,1.8-0.2,2.3-0.5s0.7-0.8,0.7-1.4c0-0.4-0.1-0.7-0.3-0.9s-0.5-0.5-0.9-0.8
		S8.9,17.8,7,17c-1.7-0.8-2.9-1.5-3.8-2.2s-1.5-1.5-1.9-2.5s-0.6-2-0.6-3.3c0-2.4,0.9-4.2,2.6-5.5s4.1-2,7.1-2
		c2.7,0,5.4,0.6,8.1,1.8l-2.1,5.4C14.1,7.6,12,7,10.3,7c-0.9,0-1.6,0.2-2,0.5S7.7,8.2,7.7,8.7c0,0.5,0.3,1,0.8,1.4s1.9,1.1,4.2,2.2
		c2.2,1,3.8,2.1,4.6,3.2S18.6,18,18.6,19.8z"/>
	<path class="st0" d="M32.5,27.6l-1.3-2.6H31c-0.9,1.1-1.9,1.9-2.8,2.4s-2.2,0.6-3.7,0.6c-1.9,0-3.4-0.6-4.4-1.7s-1.6-2.7-1.6-4.7
		c0-2.1,0.7-3.7,2.2-4.7s3.6-1.6,6.4-1.7l3.3-0.1v-0.3c0-1.6-0.8-2.5-2.4-2.5c-1.5,0-3.3,0.5-5.5,1.5l-2-4.5
		c2.3-1.2,5.2-1.8,8.8-1.8c2.6,0,4.5,0.6,5.9,1.9s2.1,3,2.1,5.3v13.1H32.5z M27.4,23.1c0.8,0,1.5-0.3,2.1-0.8s0.9-1.2,0.9-2.1v-1.5
		l-1.6,0.1c-2.3,0.1-3.4,0.9-3.4,2.5C25.4,22.5,26.1,23.1,27.4,23.1z"/>
	<path class="st0" d="M63.7,27.6V16.7c0-1.3-0.2-2.4-0.6-3s-1-1-1.7-1c-1.1,0-1.8,0.5-2.3,1.4s-0.7,2.3-0.7,4.2v9.3h-6.9V16.7
		c0-1.3-0.2-2.4-0.5-3s-0.9-1-1.7-1c-1.1,0-1.9,0.5-2.4,1.4s-0.7,2.5-0.7,4.7v8.7h-6.9V7.6h5.2l0.9,2.5h0.4C46.2,9.2,47,8.5,48,8
		s2.1-0.7,3.4-0.7c2.9,0,4.9,0.9,6,2.6H58c0.6-0.8,1.3-1.5,2.3-1.9s2.1-0.7,3.3-0.7c2.4,0,4.1,0.6,5.2,1.8s1.7,3,1.7,5.5v13H63.7z"
		/>
	<path class="st0" d="M84.5,27.9c-1,0-1.9-0.2-2.7-0.5s-1.6-0.9-2.4-1.8h-0.3c0.2,1.4,0.3,2.3,0.3,2.6v8h-6.9V7.6h5.6l1,2.5h0.3
		c1.3-1.9,3-2.9,5.3-2.9c2.2,0,3.9,0.9,5.2,2.7s1.9,4.3,1.9,7.5c0,3.2-0.7,5.7-2,7.6S86.7,27.9,84.5,27.9z M82.2,12.7
		c-1,0-1.7,0.4-2.1,1.1s-0.6,1.8-0.7,3.2v0.5c0,1.7,0.2,2.9,0.7,3.7s1.2,1.1,2.2,1.1c0.9,0,1.5-0.4,1.9-1.1s0.6-2,0.6-3.8
		c0-1.7-0.2-2.9-0.6-3.7S83.1,12.7,82.2,12.7z"/>
	<path class="st0" d="M99.8,27.6H93V0.2h6.9V27.6z"/>
	<path class="st0" d="M111.5,27.9c-3.3,0-5.9-0.9-7.7-2.6S101,21,101,17.7c0-3.4,0.8-5.9,2.5-7.7s4.1-2.7,7.3-2.7c3,0,5.3,0.8,7,2.3
		s2.5,3.8,2.5,6.8v3.1H108c0,1.1,0.5,2,1.2,2.6s1.8,0.9,3.1,0.9c1.2,0,2.3-0.1,3.3-0.3s2.1-0.6,3.3-1.2v4.9
		c-1.1,0.6-2.2,0.9-3.3,1.1S113.1,27.9,111.5,27.9z M111.1,12c-0.8,0-1.5,0.3-2,0.8s-0.9,1.3-1,2.4h5.9c0-1-0.3-1.7-0.8-2.3
		S112,12,111.1,12z"/>
	<path class="st2" d="M141.8,27.6l-1.7-1.8c-1.1,0.7-1.9,1.1-2.6,1.4s-1.4,0.4-2.3,0.6s-1.8,0.2-2.9,0.2c-1.9,0-3.5-0.3-4.9-0.9
		s-2.5-1.5-3.3-2.7s-1.1-2.4-1.1-3.9c0-3.1,1.6-5.4,4.8-7c-0.7-0.8-1.3-1.7-1.7-2.6s-0.6-2-0.6-3.1c0-1.9,0.7-3.4,2.2-4.5
		s3.4-1.7,6-1.7c2.5,0,4.4,0.5,5.8,1.6s2.1,2.6,2.1,4.5c0,1.3-0.4,2.5-1.1,3.6s-1.9,2.1-3.5,3.1l3.5,3.3c0.9-1.3,1.5-2.9,1.8-4.6
		h7.1c-0.4,1.6-0.9,3.2-1.7,4.9c-0.8,1.6-1.6,3-2.6,4.2l5.6,5.4H141.8z M130.1,19.9c0,0.7,0.3,1.3,0.8,1.8s1.2,0.7,2.1,0.7
		c0.7,0,1.3-0.1,1.8-0.3s0.9-0.4,1.2-0.6l-4.4-4.4C130.6,17.9,130.1,18.8,130.1,19.9z M135.3,7.6c0-0.6-0.2-1-0.5-1.2
		S134.1,6,133.6,6c-0.5,0-0.9,0.1-1.3,0.4s-0.6,0.8-0.6,1.4c0,0.9,0.5,1.8,1.5,2.7c0.7-0.4,1.2-0.8,1.5-1.3S135.3,8.2,135.3,7.6z"/>
	<path class="st0" d="M164.7,27.6h-6.9v-20h-6.3V1.9h19.5v5.7h-6.3V27.6z"/>
	<path class="st0" d="M181.1,27.9c-3.3,0-5.9-0.9-7.7-2.6s-2.8-4.3-2.8-7.5c0-3.4,0.8-5.9,2.5-7.7s4.1-2.7,7.3-2.7
		c3,0,5.3,0.8,7,2.3s2.5,3.8,2.5,6.8v3.1h-12.3c0,1.1,0.5,2,1.2,2.6s1.8,0.9,3.1,0.9c1.2,0,2.3-0.1,3.3-0.3s2.1-0.6,3.3-1.2v4.9
		c-1.1,0.6-2.2,0.9-3.3,1.1S182.7,27.9,181.1,27.9z M180.7,12c-0.8,0-1.5,0.3-2,0.8s-0.9,1.3-1,2.4h5.9c0-1-0.3-1.7-0.8-2.3
		S181.6,12,180.7,12z"/>
	<path class="st0" d="M206.4,21.4c0,2.1-0.7,3.7-2.2,4.8s-3.5,1.6-6.3,1.6c-1.5,0-2.8-0.1-3.8-0.2s-2.2-0.4-3.3-0.9v-5.5
		c1.1,0.5,2.2,0.9,3.5,1.2s2.4,0.5,3.4,0.5c1.5,0,2.2-0.3,2.2-1c0-0.4-0.2-0.7-0.6-0.9s-1.6-0.8-3.6-1.6c-1.8-0.7-3.1-1.6-3.8-2.6
		s-1.1-2.2-1.1-3.6c0-1.9,0.7-3.3,2.1-4.3s3.5-1.5,6.1-1.5c1.3,0,2.5,0.1,3.7,0.4s2.4,0.7,3.6,1.3l-1.9,4.4c-0.9-0.4-1.9-0.8-2.9-1
		s-1.9-0.4-2.5-0.4c-1.1,0-1.7,0.3-1.7,0.8c0,0.3,0.2,0.6,0.6,0.9s1.5,0.7,3.4,1.5c1.4,0.6,2.4,1.1,3.1,1.7s1.2,1.2,1.5,1.9
		C206.3,19.5,206.4,20.4,206.4,21.4z"/>
	<path class="st0" d="M217.3,22.5c0.9,0,2-0.2,3.3-0.7v5c-0.9,0.4-1.8,0.7-2.6,0.9s-1.8,0.3-2.9,0.3c-2.3,0-4-0.6-5-1.7
		s-1.5-2.9-1.5-5.2v-8.2h-2.4V10l3.1-2.2l1.8-4.2h4.5v4h4.9v5.2h-4.9v7.8C215.4,21.8,216.1,22.5,217.3,22.5z"/>
	<path class="st0" d="M221.3,2.7c0-1,0.3-1.8,0.9-2.3s1.5-0.8,2.8-0.8s2.2,0.3,2.8,0.8s0.9,1.3,0.9,2.3c0,2-1.2,3-3.7,3
		C222.5,5.7,221.3,4.7,221.3,2.7z M228.3,27.6h-6.9V7.6h6.9V27.6z"/>
	<path class="st0" d="M243,27.6V16.7c0-1.3-0.2-2.3-0.6-3s-1-1-1.8-1c-1.2,0-2,0.5-2.5,1.4s-0.8,2.5-0.8,4.8v8.7h-6.9V7.6h5.2
		l0.9,2.5h0.4c0.6-0.9,1.4-1.6,2.4-2.1s2.2-0.7,3.6-0.7c2.2,0,3.9,0.6,5.1,1.9s1.8,3.1,1.8,5.4v13H243z"/>
	<path class="st0" d="M270.6,7.6V11l-2.7,1c0.4,0.7,0.6,1.5,0.6,2.4c0,2.1-0.8,3.8-2.3,5c-1.5,1.2-3.8,1.8-6.7,1.8
		c-0.7,0-1.3,0-1.8-0.1c-0.2,0.3-0.2,0.6-0.2,0.9c0,0.3,0.3,0.6,0.8,0.8s1.3,0.3,2.2,0.3h3.3c4.5,0,6.7,1.9,6.7,5.6
		c0,2.4-1,4.3-3.1,5.7s-5,2-8.7,2c-2.8,0-5-0.5-6.5-1.4s-2.3-2.3-2.3-4.1c0-2.4,1.5-3.9,4.4-4.6c-0.6-0.3-1.1-0.7-1.6-1.2
		s-0.7-1.1-0.7-1.7c0-0.6,0.2-1.2,0.5-1.6s1-1,2.1-1.7c-1-0.5-1.8-1.2-2.4-2.1s-0.9-2.2-0.9-3.6c0-2.2,0.7-3.8,2.2-5
		s3.6-1.8,6.3-1.8c0.4,0,1,0,1.9,0.1s1.5,0.2,2,0.2H270.6z M255.6,30c0,0.6,0.3,1,0.9,1.4s1.4,0.5,2.4,0.5c1.7,0,3-0.2,4-0.6
		s1.5-1,1.5-1.6c0-0.5-0.3-0.9-0.9-1.1s-1.5-0.3-2.6-0.3h-2.7c-0.7,0-1.4,0.2-1.9,0.5S255.6,29.5,255.6,30z M257.8,14.2
		c0,2,0.7,3.1,2.1,3.1c0.7,0,1.2-0.3,1.5-0.8s0.5-1.3,0.5-2.3c0-2.1-0.7-3.1-2.1-3.1C258.5,11.1,257.8,12.1,257.8,14.2z"/>
</g>
<g>
	<path class="st1" d="M283,16.9c0,0.9-0.3,1.5-0.9,2s-1.4,0.7-2.5,0.7h-1V23h-1v-8.6h2.2C281.9,14.4,283,15.3,283,16.9z M278.5,18.8
		h0.9c0.9,0,1.5-0.1,1.9-0.4s0.6-0.7,0.6-1.4c0-0.6-0.2-1-0.6-1.3s-0.9-0.4-1.7-0.4h-1.1V18.8z"/>
	<path class="st1" d="M284.5,22.4c0-0.3,0.1-0.5,0.2-0.6s0.3-0.2,0.5-0.2c0.2,0,0.4,0.1,0.5,0.2s0.2,0.3,0.2,0.6
		c0,0.3-0.1,0.4-0.2,0.6s-0.3,0.2-0.5,0.2c-0.2,0-0.4-0.1-0.5-0.2S284.5,22.7,284.5,22.4z"/>
	<path class="st1" d="M291.6,15.2c-0.9,0-1.7,0.3-2.2,0.9s-0.8,1.5-0.8,2.6c0,1.1,0.3,2,0.8,2.6s1.3,0.9,2.2,0.9
		c0.6,0,1.3-0.1,2-0.3v0.9c-0.6,0.2-1.3,0.3-2.2,0.3c-1.3,0-2.2-0.4-2.9-1.1s-1-1.9-1-3.3c0-0.9,0.2-1.7,0.5-2.3s0.8-1.2,1.4-1.5
		s1.4-0.5,2.2-0.5c0.9,0,1.7,0.2,2.4,0.5l-0.4,0.9C292.9,15.4,292.3,15.2,291.6,15.2z"/>
	<path class="st1" d="M295.2,22.4c0-0.3,0.1-0.5,0.2-0.6s0.3-0.2,0.5-0.2c0.2,0,0.4,0.1,0.5,0.2s0.2,0.3,0.2,0.6
		c0,0.3-0.1,0.4-0.2,0.6s-0.3,0.2-0.5,0.2c-0.2,0-0.4-0.1-0.5-0.2S295.2,22.7,295.2,22.4z"/>
</g>
<g>
</g>
<g>
</g>
<g>
</g>
<g>
</g>
<g>
</g>
<g>
</g>
</svg>
